<svg xmlns="http://www.w3.org/2000/svg" viewBox="0 0 128.07 71.73"><defs><style>.cls-1,.cls-2{fill:none;}.cls-1,.cls-4,.cls-5{stroke:#231f20;}.cls-1,.cls-2,.cls-4,.cls-5{stroke-miterlimit:10;}.cls-2{stroke:#fff;}.cls-3,.cls-5{fill:#fff;}.cls-4{fill:#231f20;}</style></defs><g id="Layer_2" data-name="Layer 2"><g id="Layer_1-2" data-name="Layer 1"><circle class="cls-1" cx="35.87" cy="35.87" r="35.37"/><rect class="cls-1" x="0.5" y="0.5" width="70.73" height="70.73"/><line class="cls-1" x1="0.5" y1="35.87" x2="71.23" y2="35.87"/><rect class="cls-2" x="71.23" y="1.43" width="14.85" height="24.65"/><path class="cls-3" d="M73.37,7.84a2.82,2.82,0,0,0,.43-.15A2.76,2.76,0,0,0,73.37,7.84Z"/><polygon class="cls-3" points="69.51 8.37 69.34 8.35 69.76 8.42 69.51 8.37"/><path class="cls-3" d="M69.49,8.62c.71,0-.11-.1.15-.13h.16l-.57-.05C69.31,8.5,69.69,8.59,69.49,8.62Z"/><path class="cls-3" d="M67.94,8.65c.28,0,.24,0,.09,0H68Z"/><path class="cls-3" d="M68,8.63s-.24,0,0,0Z"/><path class="cls-3" d="M68.11,8.76l-.25,0a1.81,1.81,0,0,1-.32,0A1.78,1.78,0,0,0,68.11,8.76Z"/><path class="cls-3" d="M68.63,8.83l-.11,0C68.45,8.81,68.43,8.81,68.63,8.83Z"/><path class="cls-3" d="M68.3,8.75l.22.06c.12,0,.35,0-.08,0C68.65,8.8,68.45,8.78,68.3,8.75Z"/><path class="cls-3" d="M68.41,8.74a1.46,1.46,0,0,1,.5,0C68.82,8.69,68.32,8.66,68.41,8.74Z"/><path class="cls-3" d="M70.22,8.68h.22l-.24,0C70.32,8.65,70,8.67,70.22,8.68Z"/><path class="cls-3" d="M67.73,9l.59,0-.17,0C68.05,9,68,9,67.73,9Z"/><path class="cls-3" d="M68.32,9l.26.06S68.49,9,68.32,9Z"/><polygon class="cls-3" points="69.42 8.89 68.87 8.79 69.42 8.9 69.42 8.89"/><polygon class="cls-3" points="67.7 9.11 67.35 9.06 67.88 9.14 67.7 9.11"/><path class="cls-3" d="M67.75,9.21c-.29,0-.49,0-.67,0a3.5,3.5,0,0,0,.52.11C67.48,9.25,67.51,9.23,67.75,9.21Z"/><path class="cls-3" d="M67.93,9.33l-.33-.05Z"/><path class="cls-3" d="M68.5,9.1a3.12,3.12,0,0,0-.43,0h.42Z"/><path class="cls-3" d="M68.51,9.12h0l0,0Z"/><path class="cls-3" d="M68.5,9.1Z"/><path class="cls-3" d="M69,9a3.44,3.44,0,0,0,.86.08C69.59,9,69.38,9,69,9Z"/><path class="cls-3" d="M69,9.11l.1,0c-.11,0-.28,0-.4,0Z"/><polygon class="cls-3" points="69.17 9.14 69.04 9.12 69 9.13 69.17 9.14"/><path class="cls-3" d="M68.33,9.29c.18,0,.2.05.23.07s.13,0,.13-.06S68.32,9.26,68.33,9.29Z"/><path class="cls-3" d="M68.45,9.21h0Z"/><path class="cls-3" d="M68.54,9.58h0Z"/><path class="cls-3" d="M68.77,9.3c.08,0,0,0-.15-.05,0,0,.07,0,.07.05Z"/><path class="cls-3" d="M68.12,9.41l.24,0C68.22,9.39,68,9.4,68.12,9.41Z"/><path class="cls-3" d="M68.36,9.21h0Z"/><path class="cls-3" d="M68.36,9.21l.26,0-.14,0Z"/><path class="cls-3" d="M71.27,9.83c-.39,0-.75-.1-.33-.12-.29-.05-1.59-.11-2.32-.13a5,5,0,0,1,.56.08,4.16,4.16,0,0,1,.87,0c.2.07-.15,0-.36.05.5,0,.71.12,1.44.15l-.25-.06Z"/><path class="cls-3" d="M68.66,9.51l0,0a4.59,4.59,0,0,1-.54,0,3.46,3.46,0,0,0,.46.07l.06-.08Z"/><path class="cls-3" d="M68.62,9.41a9,9,0,0,0,1.07.1s-.35-.06-.54-.1c.1.09-.23,0-.48,0-.07,0-.1,0-.11-.05l-.2,0h.26a.3.3,0,0,1-.17,0h-.07l.24.1C68.68,9.47,68.67,9.45,68.62,9.41Z"/><path class="cls-3" d="M70.8,9.15h0Z"/><path class="cls-3" d="M70.54,9.17c-.06,0-.23,0-.19,0a2.11,2.11,0,0,1,.35,0,1.84,1.84,0,0,0-.52,0h.06a6.63,6.63,0,0,1-.74,0Z"/><path class="cls-3" d="M69.69,9.3l.21.08h.15C70.14,9.32,69.86,9.31,69.69,9.3Z"/><polygon class="cls-3" points="68.33 9.57 67.87 9.54 68.51 9.62 68.33 9.57"/><polygon class="cls-3" points="68.37 9.66 67.98 9.64 68.22 9.68 68.37 9.66"/><path class="cls-3" d="M68.22,14.31l-.11,0Z"/><path class="cls-3" d="M68.19,14.46h.2A.58.58,0,0,0,68.19,14.46Z"/><path class="cls-3" d="M68.28,11.8c-.37,0-1,0-.5,0l.43,0C68.14,11.82,68.19,11.8,68.28,11.8Z"/><path class="cls-3" d="M70.77,13.42h.13l-.41,0Z"/><path class="cls-3" d="M72.56,13.56l-.28,0Z"/><path class="cls-3" d="M67.77,13.53l-.44,0A1.4,1.4,0,0,0,67.77,13.53Z"/><path class="cls-3" d="M68.48,10.56c-.18,0-.25,0-.27,0C68.46,10.59,68.84,10.59,68.48,10.56Z"/><path class="cls-3" d="M72.83,14.41l-.27,0A1.1,1.1,0,0,0,72.83,14.41Z"/><path class="cls-3" d="M68.21,10.68h.1c-.07,0-.13,0-.1-.06C68,10.62,67.91,10.64,68.21,10.68Z"/><path class="cls-3" d="M68.16,10.72h0C68.15,10.71,68.15,10.72,68.16,10.72Z"/><path class="cls-3" d="M72.54,9.94s0,0,0,0S72.6,10,72.54,9.94Z"/><path class="cls-3" d="M68.16,10s0,0,0,0Z"/><path class="cls-3" d="M69.88,10l.21,0Z"/><path class="cls-3" d="M70.89,11Z"/><path class="cls-3" d="M68.36,10h0Z"/><path class="cls-3" d="M68.16,10l0,0C68.13,10,68.08,10,68.16,10Z"/><path class="cls-3" d="M68.18,10l0,0h-.07Z"/><path class="cls-3" d="M69.3,12.24h0C69.16,12.22,69.19,12.22,69.3,12.24Z"/><path class="cls-3" d="M72.74,12.57h0Z"/><path class="cls-3" d="M73.06,12.66c-.54-.07-.47-.08-.35-.09l-1.25-.06Z"/><path class="cls-3" d="M68.1,14l-.39,0a3.34,3.34,0,0,0-1-.06c1.36,0,.14.18,1.5.2l-.29,0s-.07,0,0,0c-.65.06,1,.06.79.13a1.42,1.42,0,0,1-.47,0l.34.07s-.26,0-.24,0l.11.09h0l.6,0L74,15l-1.8-.33h-.08a1.48,1.48,0,0,1,.31,0l-.32-.08a3.17,3.17,0,0,1,.47,0l.14,0,0,0h0l-4.31-.16h0l4.68.17h.15s0,0-.09,0-.38-.07,0-.09l.17.06a5.32,5.32,0,0,0,1-.06,10.36,10.36,0,0,1-1.55-.05c.1,0,.15,0-.12-.07.48,0,.37,0,.34,0l.64,0c-.18,0-.51-.07-.79-.11a4.94,4.94,0,0,1,1,0c.1-.06-.8,0-.92-.09.25-.05,0-.1-.38-.2a4.91,4.91,0,0,1,.57,0L72.61,14h.25c-.19,0-.64,0-.81-.1-.7-.06,1,0,.24-.14.19,0,.39,0,.64.05a8.63,8.63,0,0,0-1.08-.21l.43,0a8.31,8.31,0,0,1-1.51-.16h-.53l-.34-.09.59.05-.15,0a7.57,7.57,0,0,1,1,.07h-.4c.39.05.82.09,1.19.11l-.17,0,.26,0c.07,0-.07,0-.23,0l.71,0-.28,0,.45-.07a15,15,0,0,1-2-.37c.52.06.85.06,1.47.1-.66,0,.27.11.13.15a1.89,1.89,0,0,1,.47,0l-.59-.14a2.21,2.21,0,0,0,.59,0c-1-.05-.66-.12-1-.18.34,0,.68,0,.59.09.76,0-1.17-.14-.52-.16,0,0,0,0,.12,0-.29-.05,0-.11.24-.07h0c.12-.07,0-.25-.83-.31l1.19.09-2.84-.33c.73.06,2.47.12,2.87.22.11,0,.23,0,0-.09s-1.06,0-1.13-.06c.82,0,.44,0,1.14,0a9,9,0,0,1-1.26-.12l1.24.09-1.11-.15c.2,0,1,.07,1.27.07-.23,0,0-.07-.09-.09H72.5c.17-.07-1.57-.19-1.51-.27a14.74,14.74,0,0,0,1.57.08c-.57-.06-2.76-.27-3.2-.38h.33l-.37-.08c.86.09,2.68.31,3.38.42.26,0,.39,0,.36,0a1,1,0,0,1,.49.08l.2-.11c-.67,0-.66-.13-1.22-.16l.68.17a6.37,6.37,0,0,1-1.77-.27c.27,0,1.19.09,1.41.11-.23,0-.43-.11-.27-.11l.36.06c.25,0-.89-.13-.24-.14,0,0,.87,0,.47,0-.77,0-3.14-.17-3.71-.23.05,0,.74-.05,1.12-.05.6,0,1.43.14,1.94.15-.18,0-.41-.05-.48-.06.16,0,.57.05.49,0-.68,0,.06-.08-.57-.06-.2-.05.14,0,.11-.09A13.89,13.89,0,0,1,70.39,11l.5,0c.07-.08.38-.11.39-.19a5.07,5.07,0,0,1,.66,0,1.61,1.61,0,0,1-.37-.07c.6,0,.09.06.8.07a4.31,4.31,0,0,1-.78-.15c-.62,0-.13.08.12.13a13.34,13.34,0,0,1-2.11-.29c-.2-.08.55,0,.43,0,.16-.11-1.46-.2-.85-.27s1.07.07,1.46.09c.2.07-.35.06-.33.1l.26,0c.17,0,.31.07.15.08.48,0,.11-.2.56-.27a3.41,3.41,0,0,0-.58-.07l.07,0c-.43,0-.59-.09-.8-.07S69.2,10,69.44,10l.62,0c-.18,0-.37,0-.18,0-.27,0,.83,0,0-.11h-.43c-.3-.06-1-.15-.75-.19-.61,0,.07,0-.64,0,.88,0,0,.12.88.13-.82,0-.35.05-1.06.05.21,0,.39,0,.29,0l.18,0h.32a5,5,0,0,1,.68.16,4.27,4.27,0,0,1-.44,0l.35.05a5.65,5.65,0,0,1-1-.05l0,.05c-.25,0-.36.05-.17.09-.1,0,.49.1.14.05l.28.11h-.12c-.06.08.73.22-.08.26.11,0,.25.08.12.12l-.39,0c.13,0-.4.08,0,.12-1,0-.24.16-.43.22l.5,0s.11.1.31.16l.45,0c.37.07-.33.1-.28.18-.17,0-.13,0,0,0-1,0,.72.23,0,.26.16,0,.1,0,0,0h0l-.24,0h.24a.48.48,0,0,0,.17.07l-.48,0h0c-.18,0,.22,0,.58,0l.29,0c-.77,0,.26.08-.57.05a8.84,8.84,0,0,0,1.14.2H69.5c-.09,0-.19,0,0,.07l-.62,0,.82.11a5.74,5.74,0,0,1-1.06-.05c.72.13.27.08,1,.2l-.39,0s.54.1.21.09c-.75,0-.12.27-.83.37,1.17.05-.52,0,.38.09a4.55,4.55,0,0,1-.67,0c.26.09-.45.08.31.18-.28,0-.4,0-.57,0,.06,0,.24,0,.08,0a1.61,1.61,0,0,1-.35,0,7.87,7.87,0,0,0,1.68.2c-.38,0-.33,0,.19.09a2,2,0,0,1-.62-.05s-.39.13.24.18c-.16,0,0,0,0,0s-.1.06,0,.12h.1c.77.08.17.06.26.11H69.6c-.56.07.26.06-.38.12l.48,0c1,.08-.61.05-.22.14h.27c.35.06-1.4,0-1.53,0A.6.6,0,0,1,68,14c-.62.05.62.06.77.13a6.67,6.67,0,0,0-.93,0c-.27,0,1.09.2.44.21a4.83,4.83,0,0,1,.71.05s0,0,0,0l3.23.12c.15,0,.86-.1.15-.14h.2a4.1,4.1,0,0,0-.8-.14c1.66,0-.8-.23.73-.21l-.08-.11h.15c.11-.07-.26-.09-.63-.12a1.81,1.81,0,0,1,.33,0c.31-.1.24-.11-.52-.2h.5c-.29,0,.78-.14.2-.24h.22c-.58-.11,1.38-.25-.42-.31L71.79,13c-.14.1-.78,0-1.08,0-.11,0,.54-.09.64-.05h-.09c.94,0,.33-.12,1-.11,0-.19.48-.36.52-.54H72l0-.06c.17,0,.57,0,.54,0,.42,0-.34-.08-.5-.08a3.62,3.62,0,0,1,.87,0l-.06,0h-.08c-.3,0-.62,0-.58-.09s.45,0,.48,0,.08,0,0,0l.06-.07-.57,0c-.29,0,0-.07-.63,0,1-.05.37-.29.68-.32-.42-.05-.41-.1-.36-.15-.12,0-.77,0-.69,0a8,8,0,0,0,1.55-.12c-.64,0-.16-.14-1.07-.09.11,0,.5,0,.82,0-.52-.11.34-.22.16-.34s-.44,0-.7,0l.88-.06c-.09,0-1,0-.41-.07a1.92,1.92,0,0,1-.42,0c.86-.24-.7-.51.91-.74-.34,0-.37,0-.39,0s-.43,0-.67,0l.66-.1c-.66,0,0-.11-.67-.12l.11,0c-.74,0-1.66.05-2.62,0,.85.06-1.25.12,0,.21-.2,0-.31,0-.53,0,.41,0,.5.05.31.09H69c.1.13-.31.18-.58.32h.48a2.27,2.27,0,0,1-.34.05c.72,0,0-.09.84-.05-1,0,0,.22-1.11.24,0,0,.54,0,.54,0h-.3l.38,0a3.61,3.61,0,0,1-.68,0s-.07,0-.09,0c-.35,0,.11.11,0,.13l.18,0c.28.14-.11.29.49.42h.22c.42.1-.24.08,0,.18h-.06c.23,0,.34,0,.31.08-.26,0-.51,0-.79,0a6.91,6.91,0,0,0,1.17.13h-.37a2.28,2.28,0,0,1,.61.08c-.32,0-.57,0-1,0-.81.1.82.17-.36.21,1,.06.57-.09.79-.06s.76.05.66.08a10.78,10.78,0,0,0-1.3.14s-.07,0-.06,0c-.27,0,.35.07-.08.1.62,0,0,.06.76.07l-.18-.08c.2,0,1.13.1.68.17l-.49,0c-.23,0,.16,0-.08.06-.8,0-.17-.1-.78-.15-.33,0,.58.1-.28.07,1.09,0-.14.08.69.15h-.47c.07,0,.3,0,.28.05l-.61,0c.52.06-.46.09-.18.14,0-.1.58,0,.92,0,.64.12-1.24,0-1,.19-.07,0,.28-.07.5,0a2.32,2.32,0,0,1-.53.07c.1.09.49,0,.78,0-.58,0,.24,0,.42.08h-.48c-.31.1,1,0,.63.12l-.67,0,.17,0-.55,0c.41.06.31.07.15.12a3.42,3.42,0,0,1,.89.06c-.29,0-.46,0-.39,0-.3,0-.68,0-.23-.06l-.46,0c-.33,0-.08.08-.07.11l.11,0,.67.1a3.52,3.52,0,0,1-.47,0,2.84,2.84,0,0,1,.31.06,7.82,7.82,0,0,1-1,0l.44.09c-.17,0-.47,0-.62,0s.76.12.46.19l.2,0c-.09.06-.57.11,0,.19l-.71,0c.16.06.89,0,1.16.05s-.6,0-.8,0c.35,0,1.07.1.5.16C68.05,14,68.15,14,68.1,14Zm4.69.54c.1,0,.41.07.13.06C72.37,14.52,72.63,14.52,72.79,14.51ZM71.7,13.38c.16,0,.08,0-.1,0S71.58,13.39,71.7,13.38Zm-3.16-3.15h0C68.37,10.25,68.45,10.24,68.54,10.23Zm.21-.05-.2,0c.12,0,.13,0,.1,0S68.86,10.21,68.75,10.18Zm3.8,1.89h-.12C72.29,12.06,72.41,12.06,72.55,12.07Z"/><path class="cls-3" d="M72.35,13.54h-.26A1.11,1.11,0,0,0,72.35,13.54Z"/><polygon class="cls-3" points="67.85 13.54 67.86 13.54 67.77 13.53 67.85 13.54"/><path class="cls-3" d="M72.77,11.41h-.25A.58.58,0,0,0,72.77,11.41Z"/><path class="cls-3" d="M68,9.8l.12,0s.08,0,.16,0Z"/><path class="cls-3" d="M71,9.65c-.06,0,0,0-.07,0h-.22A.45.45,0,0,0,71,9.65Z"/><path class="cls-3" d="M69.56,9.87c.4,0,.27,0,.2,0h0C69.19,9.78,69.37,9.82,69.56,9.87Z"/><path class="cls-3" d="M69.74,9.81s0,0,0,0C69.51,9.77,69.69,9.8,69.74,9.81Z"/><path class="cls-3" d="M68.49,10.08c.11,0-.52,0-.35,0C67.62,10,68.76,10.17,68.49,10.08Z"/><polygon class="cls-3" points="70.89 9.93 70.39 9.91 70.8 9.95 70.89 9.93"/><path class="cls-3" d="M70.51,10.13l.15,0a.54.54,0,0,1-.17,0S70.37,10.12,70.51,10.13Z"/><path class="cls-3" d="M70.49,10.07s0,0-.09,0Z"/><polygon class="cls-3" points="71.04 10 70.94 10.01 70.9 10.04 71.04 10"/><path class="cls-3" d="M70.39,10.6l.14.06c.17,0,.27,0,.21,0A1.69,1.69,0,0,0,70.39,10.6Z"/><path class="cls-3" d="M71.76,10.54c-.1,0-.21,0-.38,0l.62,0Z"/><path class="cls-3" d="M71.9,10.69c.17,0,.49.11.45,0A1.83,1.83,0,0,0,71.9,10.69Z"/><polygon class="cls-3" points="71.07 11.38 71.06 11.36 70.05 11.3 71.07 11.38"/><path class="cls-3" d="M73.46,12.18c.24,0-.63,0-.32-.09-.24,0-.25,0-.46,0A2.56,2.56,0,0,0,73.46,12.18Z"/><path class="cls-3" d="M72.68,12.09l-.15,0Z"/><polygon class="cls-3" points="73.09 9.81 73.3 9.77 72.96 9.79 73.09 9.81"/><path class="cls-3" d="M72.33,9.73H73l-.58,0S72.48,9.73,72.33,9.73Z"/><path class="cls-3" d="M74.1,14.49H74c-.17,0-.19,0-.21,0Z"/><polygon class="cls-3" points="67.59 14.26 67.58 14.27 68.16 14.26 67.59 14.26"/><path class="cls-3" d="M66.84,13.83s.11,0,.08.06S67.58,13.83,66.84,13.83Z"/><path class="cls-3" d="M67.94,4.09a22.22,22.22,0,0,0,.5,6.19A2.5,2.5,0,0,0,73.26,9c-.11-.52-.2-1-.28-1.58l.09.67a20.06,20.06,0,0,1-.13-3.95,2.5,2.5,0,0,0-4.26-1.77,2.77,2.77,0,0,0-.74,1.77Z"/><path class="cls-3" d="M71,6.2c3.21,0,3.22-5,0-5s-3.23,5,0,5Z"/><path class="cls-3" d="M75.39,24.57a41.17,41.17,0,0,0-.84-6.63c-.09-.5-.18-1-.26-1.49-.05-.26-.09-.53-.13-.8,0,0-.12-.8,0-.25a21.68,21.68,0,0,1-.21-3.22,2.52,2.52,0,0,0-2.5-2.5,2.55,2.55,0,0,0-2.5,2.5,35.25,35.25,0,0,0,.74,6.63c.18,1,.36,2,.51,3,0,.16,0,.31.07.46,0-.24,0-.27,0-.09s.06.54.08.8q.08.81.09,1.62a2.5,2.5,0,1,0,5,0Z"/><path class="cls-3" d="M72.54,28.6a1.88,1.88,0,0,0,0-3.75,1.88,1.88,0,0,0,0,3.75Z"/><path class="cls-3" d="M72.43,27.78a1.88,1.88,0,0,0,0-3.75,1.88,1.88,0,0,0,0,3.75Z"/><path class="cls-3" d="M72.57,28.7a1.88,1.88,0,0,0,0-3.75,1.88,1.88,0,0,0,0,3.75Z"/><path class="cls-3" d="M72.57,28.82a1.88,1.88,0,0,0,0-3.75,1.88,1.88,0,0,0,0,3.75Z"/><path class="cls-3" d="M72.52,28.61a1.88,1.88,0,0,0,0-3.75,1.88,1.88,0,0,0,0,3.75Z"/><path class="cls-3" d="M75.44,31.11a23.11,23.11,0,0,0-.48-3c-.2-.84-.53-1.65-.66-2.5l.07.49a3,3,0,0,1,0-.73,1.86,1.86,0,0,0-.55-1.33,2,2,0,0,0-1.33-.55,1.88,1.88,0,0,0-1.32.55l-.3.38a1.85,1.85,0,0,0-.25.95,7.33,7.33,0,0,0,.52,2.95A19.5,19.5,0,0,1,71.68,31l-.07-.49c0,.21.06.43.08.65a2,2,0,0,0,.55,1.32,1.87,1.87,0,0,0,2.65,0,1.8,1.8,0,0,0,.55-1.32Z"/><path class="cls-3" d="M75.49,32.72a28.29,28.29,0,0,0-1.07-6.26,1.9,1.9,0,0,0-2.31-1.31,1.92,1.92,0,0,0-1.31,2.31,36.51,36.51,0,0,1,.86,4l-.07-.5a17.16,17.16,0,0,1,.15,1.76,1.88,1.88,0,0,0,3.75,0Z"/><path class="cls-3" d="M74.58,27.32a5.73,5.73,0,0,0-.24-1.3l-3.61,1,.17.5a1.51,1.51,0,0,0,.33.64,1.53,1.53,0,0,0,.53.48,2.17,2.17,0,0,0,1.45.19l.44-.19a1.9,1.9,0,0,0,.68-.67l.19-.45a2.11,2.11,0,0,0,0-1l-.18-.5a1.36,1.36,0,0,0-.33-.64,1.45,1.45,0,0,0-.53-.48A2.15,2.15,0,0,0,72,24.71l-.45.19a1.8,1.8,0,0,0-.67.67l-.19.45a1.89,1.89,0,0,0,0,1,5.17,5.17,0,0,1,.16.68l-.07-.5s0,.08,0,.12A1.37,1.37,0,0,0,71,28a1.59,1.59,0,0,0,1,1,1.37,1.37,0,0,0,.72.17l.5-.07a1.9,1.9,0,0,0,.82-.48l.3-.38a1.85,1.85,0,0,0,.25-.95Z"/><path class="cls-3" d="M72.64,28.92a1.88,1.88,0,0,0,0-3.75,1.88,1.88,0,0,0,0,3.75Z"/><path class="cls-3" d="M72.61,28.81a1.88,1.88,0,0,0,0-3.75,1.88,1.88,0,0,0,0,3.75Z"/><path class="cls-3" d="M72.57,28.79a1.88,1.88,0,0,0,0-3.75,1.88,1.88,0,0,0,0,3.75Z"/><path class="cls-3" d="M75.56,33.68c-.15-1.6-.32-3.2-.52-4.8a2.09,2.09,0,0,0-.55-1.32,1.88,1.88,0,0,0-2.66,0,1.75,1.75,0,0,0-.54,1.32c.2,1.6.37,3.2.52,4.8A2,2,0,0,0,72.36,35,1.87,1.87,0,0,0,75,35a1.82,1.82,0,0,0,.55-1.32Z"/><path class="cls-3" d="M75.48,33.55A18.28,18.28,0,0,0,74.77,28a1.88,1.88,0,0,0-3.62,1,16.94,16.94,0,0,1,.52,2.45L71.6,31a16.18,16.18,0,0,1,.13,2.6,1.88,1.88,0,1,0,3.75,0Z"/><path class="cls-3" d="M75.49,33.48a38.67,38.67,0,0,0-1.19-7.41,1.87,1.87,0,1,0-3.61,1c.29,1.11.53,2.23.71,3.36,0,.26.08.52.12.78s0-.41,0,.1c0,.15,0,.3,0,.46.06.56.11,1.14.15,1.71a1.88,1.88,0,0,0,3.75,0Z"/><path class="cls-3" d="M73,68.37c.06.45,0,0,0-.13s0-.36-.06-.55-.07-.62-.09-.94c-.06-.66-.09-1.31-.11-2a37.15,37.15,0,0,1,.12-4A1.87,1.87,0,0,0,70.93,59a1.92,1.92,0,0,0-1.88,1.87,39.35,39.35,0,0,0,.29,8.54,1.86,1.86,0,0,0,.86,1.12,2,2,0,0,0,1.44.19,1.9,1.9,0,0,0,1.12-.86A2.14,2.14,0,0,0,73,68.37Z"/><path class="cls-3" d="M72.21,70.85a1.88,1.88,0,0,0,0-3.75,1.88,1.88,0,0,0,0,3.75Z"/><path class="cls-3" d="M70.77,70.7a1.88,1.88,0,0,0,0-3.75,1.88,1.88,0,0,0,0,3.75Z"/><path class="cls-3" d="M73.47,62.13a65,65,0,0,1,.45-11.33A1.89,1.89,0,0,0,72,48.92a1.93,1.93,0,0,0-1.87,1.88,65,65,0,0,0-.45,11.33,1.88,1.88,0,0,0,3.75,0Z"/><path class="cls-3" d="M73.8,49.21a8.45,8.45,0,0,1,0-1.88l-.07.5c0-.2.07-.41.11-.61a2.17,2.17,0,0,0-.19-1.45,2.14,2.14,0,0,0-1.12-.86,1.89,1.89,0,0,0-1.45.19,1.87,1.87,0,0,0-.86,1.12,10.36,10.36,0,0,0-.21,3,1.36,1.36,0,0,0,.16.72,1.49,1.49,0,0,0,.39.6,1.31,1.31,0,0,0,.6.39,1.42,1.42,0,0,0,.73.16,1.88,1.88,0,0,0,1.32-.55,1.82,1.82,0,0,0,.55-1.32Z"/><path class="cls-3" d="M72.06,46.67l.11,0-.45-.18a1.93,1.93,0,0,1,.38.19,1.44,1.44,0,0,0,.7.22,1.55,1.55,0,0,0,.74,0A2.09,2.09,0,0,0,74.66,46l.19-.44a1.89,1.89,0,0,0,0-1l-.19-.45a1.8,1.8,0,0,0-.67-.67l-.24-.13a6.76,6.76,0,0,0-.69-.29,2.09,2.09,0,0,0-1.45.18,1.36,1.36,0,0,0-.52.49,1.39,1.39,0,0,0-.34.63l-.07.5a1.86,1.86,0,0,0,.26,1l.29.38a1.93,1.93,0,0,0,.83.48Z"/><path class="cls-3" d="M72.54,47.46a1.88,1.88,0,0,0,0-3.75,1.88,1.88,0,0,0,0,3.75Z"/><path class="cls-3" d="M72.5,47.42h0l-.5-.07.26.07-.45-.19a.83.83,0,0,1,.22.14l-.38-.3,0,0a1.49,1.49,0,0,0,.6.39,1.42,1.42,0,0,0,.73.16,1.38,1.38,0,0,0,.72-.16,1.49,1.49,0,0,0,.6-.39l.3-.38a1.84,1.84,0,0,0,.25-.94l-.07-.5a1.78,1.78,0,0,0-.48-.83l0,0-.4-.31-.07,0a5,5,0,0,0-.73-.31l-.07,0-.58-.07a1.38,1.38,0,0,0-.72.16,1.37,1.37,0,0,0-.6.38,1.42,1.42,0,0,0-.39.61,1.36,1.36,0,0,0-.16.72l.07.5a1.84,1.84,0,0,0,.48.83l.38.29a1.92,1.92,0,0,0,.94.26Z"/><path class="cls-3" d="M74.45,45.17a17.41,17.41,0,0,0,1-4.08,1.86,1.86,0,0,0-.55-1.33,1.92,1.92,0,0,0-1.32-.55,1.88,1.88,0,0,0-1.33.55l-.29.38a1.86,1.86,0,0,0-.26,1c0,.06,0,.13,0,.2l.06-.5a15.25,15.25,0,0,1-.86,3.38A1.91,1.91,0,0,0,71,45.61a1.87,1.87,0,0,0,2.57.68L74,46a1.9,1.9,0,0,0,.48-.82Z"/><path class="cls-3" d="M74.44,45.12l1-5.61a2,2,0,0,0-.19-1.45,1.92,1.92,0,0,0-1.12-.86,1.9,1.9,0,0,0-2.31,1.31l-1,5.61A2,2,0,0,0,71,45.57a1.92,1.92,0,0,0,1.12.86,1.9,1.9,0,0,0,2.31-1.31Z"/><path class="cls-3" d="M74.51,45.06c0-.17,0-.35,0-.52H70.75a.24.24,0,0,1,0,.12l.07-.5,0,.13.19-.45a.08.08,0,0,0,0,0l3.49.95a.19.19,0,0,1,0-.08l-.07.5a.85.85,0,0,1,0-.17,2.17,2.17,0,0,0-.19-1.45,2.14,2.14,0,0,0-1.12-.86l-.5-.07a1.82,1.82,0,0,0-.94.26l-.38.29a1.86,1.86,0,0,0-.49.83l0,.13a4.2,4.2,0,0,0-.08.62l.07.49a1.36,1.36,0,0,0,.33.64,1,1,0,0,0,.34.34,1.36,1.36,0,0,0,.64.33l.49.07.5-.07a2,2,0,0,0,1.12-.86l0,0c.06-.13.14-.33.19-.46v0a.19.19,0,0,0,0-.08h0a4.79,4.79,0,0,0,.07-.51s0,0,0,0a.19.19,0,0,0,0-.08,1.42,1.42,0,0,0-.16-.73,1.31,1.31,0,0,0-.39-.6,1.49,1.49,0,0,0-.6-.39,1.36,1.36,0,0,0-.72-.16l-.5.07a1.93,1.93,0,0,0-.83.48l-.29.38a1.86,1.86,0,0,0-.26.95c0,.17,0,.35,0,.52a1.36,1.36,0,0,0,.16.72,1.46,1.46,0,0,0,.39.61,1.37,1.37,0,0,0,.6.38,1.42,1.42,0,0,0,.72.17l.5-.07a1.87,1.87,0,0,0,.83-.48l.29-.38a1.89,1.89,0,0,0,.26-.95Z"/><path class="cls-3" d="M75.21,40.59l.21-.71a3,3,0,0,0,.07-.32,4.81,4.81,0,0,0,.1-.84,1.41,1.41,0,0,0-.16-.72,1.31,1.31,0,0,0-.39-.6l-.37-.29a1.39,1.39,0,0,0-.7-.23,1.06,1.06,0,0,0-.5,0,1.39,1.39,0,0,0-.7.23l-.38.29a1.87,1.87,0,0,0-.48.83,7.36,7.36,0,0,0-.32,1.55h3.75l.16-1.48a1.36,1.36,0,0,0-.16-.72A1.49,1.49,0,0,0,75,37a1.31,1.31,0,0,0-.6-.39,1.42,1.42,0,0,0-.73-.16l-.49.06a1.8,1.8,0,0,0-.83.49l-.29.38a1.82,1.82,0,0,0-.26.94l-.16,1.48a2,2,0,0,0,.55,1.32,2.1,2.1,0,0,0,1.33.55l.5-.07a1.8,1.8,0,0,0,.82-.48l.3-.38a1.81,1.81,0,0,0,.25-.94v0l-.07.5a5.07,5.07,0,0,1,.25-1l-3.69-.5a1.93,1.93,0,0,1,0,.24l.06-.5a8.51,8.51,0,0,1-.29,1.13A2.09,2.09,0,0,0,71.78,41a1.36,1.36,0,0,0,.49.52,1.39,1.39,0,0,0,.63.34l.5.07a1.86,1.86,0,0,0,.95-.26l.38-.29a1.93,1.93,0,0,0,.48-.83Z"/><circle class="cls-1" cx="35.87" cy="35.87" r="35.37"/><rect class="cls-4" x="64.17" y="0.5" width="63.4" height="70.73"/><circle class="cls-5" cx="92.28" cy="35.87" r="35.29"/><line class="cls-1" x1="92.28" y1="0.57" x2="92.28" y2="71.16"/></g></g></svg>