<svg id="Layer_1" data-name="Layer 1" xmlns="http://www.w3.org/2000/svg" viewBox="0 0 126.49 140.79"><rect x="0.5" y="0.5" width="125.49" height="138.78" fill="#231f20" stroke="#fff" stroke-miterlimit="10"/><path d="M140.83,247.23c-28.24,0-43.66-18.83-43.66-48,0-14.6,4.09-51.86,43.8-51.86,28.38,0,43.8,18.83,43.8,48C184.77,210,180.67,247.23,140.83,247.23Zm0-89.92c-14.46,0-26.61,10.37-26.61,40.38,0,29.61,11.87,39.57,26.75,39.57,14.46,0,26.74-10.36,26.74-40.38C167.71,167.27,155.7,157.31,140.83,157.31Z" transform="translate(-73.67 -146.85)" fill="#fff"/><path d="M168.56,252.84a85.34,85.34,0,0,1-15.42-1.09c0,10.51,3.54,25.38,22.24,25.38,17.87,0,22.78-8.46,23.19-9.28,0,10.24-7.09,19.79-27,19.79-25.93,0-34.53-16.92-34.53-38.89,0-31.79,17.06-41.61,33.84-41.61,17.74,0,28.8,7.91,28.8,22.24C199.67,238.24,196.94,252.84,168.56,252.84Zm1.91-37c-10.78,0-17.61,7.09-17.61,27.29,0,0,3.82.82,13.78.82,13.51,0,17.2-6.83,17.2-13.92C183.84,226,183.43,215.87,170.47,215.87Z" transform="translate(-73.67 -146.85)" fill="#fff"/></svg>